<svg width="60" height="60" viewBox="0 0 60 60" fill="none" xmlns="http://www.w3.org/2000/svg">
<g clip-path="url(#clip0_901_596)">
<circle cx="30" cy="30" r="30" fill="#151718"/>
<path fill-rule="evenodd" clip-rule="evenodd" d="M60 30C60 46.5685 46.5685 60 30 60C13.4315 60 0 46.5685 0 30C0 13.4315 13.4315 0 30 0C46.5685 0 60 13.4315 60 30ZM30 50.6667C27.7909 50.6667 26 48.8758 26 46.6667V34H13.3333C11.1242 34 9.33333 32.2091 9.33333 30C9.33333 27.7909 11.1242 26 13.3333 26H26V13.3333C26 11.1242 27.7909 9.33334 30 9.33334C32.2091 9.33334 34 11.1242 34 13.3333V26H46.6667C48.8758 26 50.6667 27.7909 50.6667 30C50.6667 32.2091 48.8758 34 46.6667 34H34V46.6667C34 48.8758 32.2091 50.6667 30 50.6667Z" fill="#ECF229"/>
</g>
<defs>
<clipPath id="clip0_901_596">
<rect width="60" height="60" fill="white"/>
</clipPath>
</defs>
</svg>
