<svg width="34" height="34" viewBox="0 0 34 34" fill="none" xmlns="http://www.w3.org/2000/svg">
<path d="M20.9808 0.44058C19.6798 0.162175 18.3521 0.0145162 17.0192 0C15.6534 0.0141666 14.3244 0.162916 13.0221 0.44058C12.7444 0.500114 12.4931 0.641376 12.3033 0.844593C12.1135 1.04781 11.9948 1.30281 11.9637 1.5739L11.6548 4.23297C11.6105 4.60802 11.4752 4.96794 11.2598 5.28391C11.0443 5.59987 10.7547 5.86312 10.414 6.05258C10.0734 6.24204 9.69122 6.35244 9.29807 6.37497C8.90492 6.39749 8.51173 6.3315 8.14996 6.18229L5.60744 5.10988C5.34937 5.00099 5.06236 4.97168 4.78614 5.026C4.50992 5.08031 4.25815 5.21557 4.06567 5.41304C2.22685 7.2987 0.857757 9.55913 0.0611986 12.0246C-0.0227221 12.2841 -0.0202785 12.5623 0.0681905 12.8204C0.156659 13.0786 0.326768 13.304 0.554921 13.4653L2.81215 15.0591C3.12964 15.283 3.38776 15.5753 3.56565 15.9124C3.74354 16.2496 3.83623 16.6221 3.83623 16.9999C3.83623 17.3777 3.74354 17.7502 3.56565 18.0873C3.38776 18.4244 3.12964 18.7168 2.81215 18.9407L0.554921 20.5387C0.327062 20.6999 0.157143 20.9251 0.0686874 21.1829C-0.0197683 21.4408 -0.0223855 21.7186 0.0611986 21.978C0.856111 24.4456 2.22421 26.7085 4.06271 28.5966C4.25502 28.7943 4.50671 28.9299 4.78294 28.9844C5.05917 29.039 5.34627 29.0099 5.60448 28.9012L8.15883 27.826C8.51849 27.6754 8.91002 27.608 9.30186 27.6292C9.69369 27.6504 10.0748 27.7595 10.4146 27.9478C11.1034 28.3303 11.5631 29.0032 11.6533 29.7625L11.9608 32.4216C11.9917 32.689 12.1079 32.9408 12.2936 33.1427C12.4793 33.3445 12.7255 33.4865 12.9985 33.5492C15.6288 34.1503 18.3697 34.1503 21 33.5492C21.2731 33.4865 21.5192 33.3445 21.7049 33.1427C21.8906 32.9408 22.0069 32.689 22.0377 32.4216L22.3452 29.7583C22.3869 29.383 22.5205 29.0224 22.735 28.7059C22.9495 28.3894 23.2389 28.1259 23.5797 27.9368C23.9205 27.7476 24.3031 27.6383 24.6963 27.6175C25.0895 27.5968 25.4823 27.6653 25.8426 27.8175L28.3955 28.8927C28.6537 29.0014 28.9408 29.0305 29.2171 28.9759C29.4933 28.9214 29.745 28.7858 29.9373 28.5881C31.7748 26.702 33.1428 24.4417 33.9388 21.9766C34.0227 21.717 34.0203 21.4389 33.9318 21.1807C33.8433 20.9226 33.6732 20.6972 33.4451 20.5358L31.1908 18.9407C30.8732 18.7169 30.615 18.4246 30.437 18.0876C30.259 17.7505 30.1661 17.378 30.166 17.0002C30.1658 16.6224 30.2584 16.2499 30.4362 15.9127C30.6139 15.5755 30.8719 15.2831 31.1893 15.0591L33.4436 13.4625C33.6712 13.3011 33.8408 13.0758 33.929 12.818C34.0172 12.5601 34.0196 12.2824 33.9358 12.0232C33.1398 9.5578 31.7712 7.29736 29.9329 5.41163C29.7404 5.21415 29.4886 5.07889 29.2124 5.02458C28.9362 4.97026 28.6492 4.99958 28.3911 5.10846L25.8486 6.18087C25.5322 6.31584 25.1897 6.38536 24.8434 6.38487C24.2241 6.38378 23.6271 6.16374 23.1667 5.76691C22.7062 5.37009 22.4148 4.82439 22.3482 4.23438L22.0377 1.57249C22.0068 1.30195 21.8884 1.04744 21.6992 0.844509C21.51 0.641575 21.2579 0.500356 20.9808 0.44058ZM17 22.6665C15.4318 22.6665 13.9279 22.0695 12.819 21.0068C11.7101 19.9441 11.0872 18.5028 11.0872 16.9999C11.0872 15.497 11.7101 14.0557 12.819 12.993C13.9279 11.9303 15.4318 11.3332 17 11.3332C18.5682 11.3332 20.0721 11.9303 21.181 12.993C22.2899 14.0557 22.9128 15.497 22.9128 16.9999C22.9128 18.5028 22.2899 19.9441 21.181 21.0068C20.0721 22.0695 18.5682 22.6665 17 22.6665Z" fill="#ECF229"/>
</svg>
