<svg width="50" height="42" viewBox="0 0 50 42" fill="none" xmlns="http://www.w3.org/2000/svg">
<path d="M5 29.64C5 28.9876 5.30854 28.3619 5.85776 27.9006C6.40697 27.4392 7.15187 27.18 7.92857 27.18H13.7857C14.5624 27.18 15.3073 27.4392 15.8565 27.9006C16.4057 28.3619 16.7143 28.9876 16.7143 29.64V37.02C16.7143 37.6725 16.4057 38.2982 15.8565 38.7595C15.3073 39.2209 14.5624 39.48 13.7857 39.48H7.92857C7.15187 39.48 6.40697 39.2209 5.85776 38.7595C5.30854 38.2982 5 37.6725 5 37.02V29.64ZM19.6429 19.8C19.6429 19.1476 19.9514 18.5219 20.5006 18.0606C21.0498 17.5992 21.7947 17.34 22.5714 17.34H28.4286C29.2053 17.34 29.9502 17.5992 30.4994 18.0606C31.0486 18.5219 31.3571 19.1476 31.3571 19.8V37.02C31.3571 37.6725 31.0486 38.2982 30.4994 38.7595C29.9502 39.2209 29.2053 39.48 28.4286 39.48H22.5714C21.7947 39.48 21.0498 39.2209 20.5006 38.7595C19.9514 38.2982 19.6429 37.6725 19.6429 37.02V19.8ZM34.2857 7.50004C34.2857 6.84761 34.5943 6.2219 35.1435 5.76056C35.6927 5.29922 36.4376 5.04004 37.2143 5.04004H43.0714C43.8481 5.04004 44.593 5.29922 45.1422 5.76056C45.6915 6.2219 46 6.84761 46 7.50004V37.02C46 37.6725 45.6915 38.2982 45.1422 38.7595C44.593 39.2209 43.8481 39.48 43.0714 39.48H37.2143C36.4376 39.48 35.6927 39.2209 35.1435 38.7595C34.5943 38.2982 34.2857 37.6725 34.2857 37.02V7.50004Z" fill="#ECF229"/>
</svg>
