<svg width="32" height="32" viewBox="0 0 32 32" fill="none" xmlns="http://www.w3.org/2000/svg">
<path d="M18.6667 30.3333H13.3333C6.09333 30.3333 3 27.24 3 20V12C3 4.75996 6.09333 1.66663 13.3333 1.66663H18.6667C25.9067 1.66663 29 4.75996 29 12V20C29 27.24 25.9067 30.3333 18.6667 30.3333ZM13.3333 3.66663C7.18667 3.66663 5 5.85329 5 12V20C5 26.1466 7.18667 28.3333 13.3333 28.3333H18.6667C24.8133 28.3333 27 26.1466 27 20V12C27 5.85329 24.8133 3.66663 18.6667 3.66663H13.3333Z" fill="#151718"/>
<path d="M20.0936 16.72C19.8536 16.72 19.6136 16.6266 19.427 16.4666C17.4803 14.7333 14.5203 14.7333 12.5736 16.4666C12.3603 16.6666 12.067 16.7466 11.7603 16.7066C11.467 16.6666 11.2136 16.4933 11.0536 16.24L8.14698 11.5733C7.89365 11.16 7.97365 10.6266 8.33365 10.2933C12.707 6.4133 19.2936 6.4133 23.667 10.2933C24.027 10.6133 24.107 11.16 23.8536 11.5733L20.947 16.24C20.787 16.4933 20.5336 16.6533 20.2403 16.7066C20.187 16.7066 20.1336 16.72 20.0936 16.72ZM16.0003 13.16C17.3336 13.16 18.6536 13.5333 19.8136 14.2666L21.6803 11.2666C18.307 8.75997 13.6803 8.75997 10.307 11.2666L12.1736 14.2666C13.347 13.52 14.667 13.16 16.0003 13.16Z" fill="#151718"/>
</svg>
