<svg width="76" height="68" viewBox="0 0 76 68" fill="none" xmlns="http://www.w3.org/2000/svg">
<path d="M0 30H76V30C76 50.9868 58.9868 68 38 68V68C17.0132 68 0 50.9868 0 30V30Z" fill="#D9D9D9"/>
<g clip-path="url(#clip0_1079_5729)">
<mask id="mask0_1079_5729" style="mask-type:luminance" maskUnits="userSpaceOnUse" x="8" y="0" width="60" height="60">
<path d="M68 0H8V60H68V0Z" fill="white"/>
</mask>
<g mask="url(#mask0_1079_5729)">
<path d="M38 60C54.5685 60 68 46.5685 68 30C68 13.4315 54.5685 0 38 0C21.4315 0 8 13.4315 8 30C8 46.5685 21.4315 60 38 60Z" fill="#151718"/>
<path fill-rule="evenodd" clip-rule="evenodd" d="M68 30C68 46.5685 54.5685 60 38 60C21.4315 60 8 46.5685 8 30C8 13.4315 21.4315 0 38 0C54.5685 0 68 13.4315 68 30ZM38 50.6667C35.7909 50.6667 34 48.8758 34 46.6667V34H21.3333C19.1242 34 17.3333 32.2091 17.3333 30C17.3333 27.7909 19.1242 26 21.3333 26H34V13.3333C34 11.1242 35.7909 9.33334 38 9.33334C40.2091 9.33334 42 11.1242 42 13.3333V26H54.6667C56.8758 26 58.6667 27.7909 58.6667 30C58.6667 32.2091 56.8758 34 54.6667 34H42V46.6667C42 48.8758 40.2091 50.6667 38 50.6667Z" fill="#ECF229"/>
</g>
</g>
<defs>
<clipPath id="clip0_1079_5729">
<path d="M8 0H68V30C68 46.5685 54.5685 60 38 60V60C21.4315 60 8 46.5685 8 30V0Z" fill="white"/>
</clipPath>
</defs>
</svg>
