<svg width="33" height="32" viewBox="0 0 33 32" fill="none" xmlns="http://www.w3.org/2000/svg">
<path d="M16.731 28C15.1465 28 13.5774 27.6896 12.1135 27.0866C10.6496 26.4835 9.31949 25.5996 8.19907 24.4853C7.07864 23.371 6.18987 22.0481 5.5835 20.5922C4.97713 19.1363 4.66504 17.5759 4.66504 16C4.66504 14.4241 4.97713 12.8637 5.5835 11.4078C6.18987 9.95189 7.07865 8.62902 8.19907 7.51472C9.3195 6.40041 10.6496 5.5165 12.1135 4.91344C13.5774 4.31039 15.1465 4 16.731 4C18.3155 4 19.8845 4.31039 21.3484 4.91345C22.8123 5.5165 24.1425 6.40042 25.2629 7.51472C26.3833 8.62902 27.2721 9.95189 27.8784 11.4078C28.4848 12.8637 28.7969 14.4241 28.7969 16C28.7969 17.5759 28.4848 19.1363 27.8784 20.5922C27.2721 22.0481 26.3833 23.371 25.2629 24.4853C24.1425 25.5996 22.8123 26.4835 21.3484 27.0866C19.8845 27.6896 18.3155 28 16.731 28L16.731 28Z" stroke="#B31B1B" stroke-width="2" stroke-linecap="round"/>
<path d="M12.709 12L20.7529 20" stroke="#B31B1B" stroke-width="2" stroke-linecap="round"/>
<path d="M20.7529 12L12.709 20" stroke="#B31B1B" stroke-width="2" stroke-linecap="round"/>
</svg>
