<svg width="20" height="20" viewBox="0 0 20 20" fill="none" xmlns="http://www.w3.org/2000/svg">
<path d="M3.33325 10C3.33325 10.221 3.42105 10.433 3.57733 10.5893C3.73361 10.7456 3.94557 10.8334 4.16659 10.8334C4.3876 10.8334 4.59956 10.7456 4.75584 10.5893C4.91212 10.433 4.99992 10.221 4.99992 10C4.99992 9.77901 4.91212 9.56705 4.75584 9.41076C4.59956 9.25448 4.3876 9.16669 4.16659 9.16669C3.94557 9.16669 3.73361 9.25448 3.57733 9.41076C3.42105 9.56705 3.33325 9.77901 3.33325 10ZM9.16658 10C9.16658 10.221 9.25438 10.433 9.41066 10.5893C9.56694 10.7456 9.7789 10.8334 9.99992 10.8334C10.2209 10.8334 10.4329 10.7456 10.5892 10.5893C10.7455 10.433 10.8333 10.221 10.8333 10C10.8333 9.77901 10.7455 9.56705 10.5892 9.41076C10.4329 9.25448 10.2209 9.16669 9.99992 9.16669C9.7789 9.16669 9.56694 9.25448 9.41066 9.41076C9.25438 9.56705 9.16658 9.77901 9.16658 10ZM14.9999 10C14.9999 10.221 15.0877 10.433 15.244 10.5893C15.4003 10.7456 15.6122 10.8334 15.8333 10.8334C16.0543 10.8334 16.2662 10.7456 16.4225 10.5893C16.5788 10.433 16.6666 10.221 16.6666 10C16.6666 9.77901 16.5788 9.56705 16.4225 9.41076C16.2662 9.25448 16.0543 9.16669 15.8333 9.16669C15.6122 9.16669 15.4003 9.25448 15.244 9.41076C15.0877 9.56705 14.9999 9.77901 14.9999 10Z" stroke="black" stroke-width="2" stroke-linecap="round" stroke-linejoin="round"/>
</svg>
