<svg width="32" height="32" viewBox="0 0 32 32" fill="none" xmlns="http://www.w3.org/2000/svg">
<path d="M6.75686 10.6666C5.82067 12.2882 5.3278 14.1276 5.3278 16C5.3278 17.8724 5.82067 19.7118 6.75686 21.3333C7.69306 22.9548 9.03959 24.3014 10.6611 25.2376C12.2827 26.1738 14.1221 26.6666 15.9945 26.6666C17.8669 26.6666 19.7063 26.1738 21.3278 25.2376C22.9493 24.3014 24.2959 22.9548 25.2321 21.3333C26.1683 19.7118 26.6611 17.8724 26.6611 16C26.6611 14.1276 26.1683 12.2882 25.2321 10.6666" stroke="#151718" stroke-width="2"/>
<path d="M15.9945 2.66663L16.6192 1.88576L15.9945 1.386L15.3698 1.88576L15.9945 2.66663ZM14.9945 14.6666C14.9945 15.2189 15.4422 15.6666 15.9945 15.6666C16.5468 15.6666 16.9945 15.2189 16.9945 14.6666L14.9945 14.6666ZM23.2858 7.21909L16.6192 1.88576L15.3698 3.44749L22.0364 8.78083L23.2858 7.21909ZM15.3698 1.88576L8.70311 7.21909L9.9525 8.78083L16.6192 3.44749L15.3698 1.88576ZM14.9945 2.66663L14.9945 14.6666L16.9945 14.6666L16.9945 2.66663L14.9945 2.66663Z" fill="#151718"/>
</svg>
