<svg width="22" height="22" viewBox="0 0 22 22" fill="none" xmlns="http://www.w3.org/2000/svg">
<path  d="M12.8576 4.38909L15.192 2.04825L15.192 2.04824C16.1276 1.11005 16.5955 0.640957 17.1509 0.51036C17.452 0.43958 17.7653 0.43958 18.0664 0.51036C18.6219 0.640957 19.0897 1.11005 20.0253 2.04825C20.9563 2.98181 21.4218 3.44859 21.5515 4.00213C21.6218 4.30219 21.6218 4.61442 21.5515 4.91448C21.4218 5.46802 20.9563 5.9348 20.0253 6.86836L17.7045 9.19554C15.6946 8.03638 14.0263 6.37621 12.8576 4.38909ZM11.4044 5.8462L2.79716 14.4771C2.37332 14.9021 2.1614 15.1146 2.02211 15.3754C1.88283 15.6363 1.82412 15.9306 1.70672 16.5192L0.884921 20.6395C0.818574 20.9721 0.7854 21.1384 0.880058 21.233C0.974716 21.3275 1.141 21.2942 1.47358 21.2275L5.57412 20.4051C6.16439 20.2868 6.45953 20.2276 6.72087 20.0874C6.98221 19.9472 7.19477 19.7341 7.61988 19.3078L16.2495 10.6546C14.2898 9.43212 12.6352 7.7857 11.4044 5.8462Z" fill="#222222"/>
</svg>
