<svg width="40" height="40" viewBox="0 0 40 40" fill="none" xmlns="http://www.w3.org/2000/svg">
<path d="M25 7.5C25.7956 7.5 26.5587 7.10491 27.1213 6.40165C27.6839 5.69839 28 4.74456 28 3.75C28 2.75544 27.6839 1.80161 27.1213 1.09835C26.5587 0.395088 25.7956 0 25 0C24.2044 0 23.4413 0.395088 22.8787 1.09835C22.3161 1.80161 22 2.75544 22 3.75C22 4.74456 22.3161 5.69839 22.8787 6.40165C23.4413 7.10491 24.2044 7.5 25 7.5ZM26.7 12.5L22.8375 8.6875C21.7562 7.625 20.2312 7.60938 19.1437 8.66406L13.95 13.6797C12.0312 15.5391 12.1688 19.2109 14.2188 20.8359L18 23.8359V32.5C18 33.8828 18.8937 35 20 35C21.1063 35 22 33.8828 22 32.5V22.5C22 21.6641 21.6687 20.8828 21.1125 20.4219L18.4375 18.1953L22.2062 14.4062L24.75 16.9531C25.1062 17.3047 25.5437 17.5 26 17.5H30C31.1063 17.5 32 16.3828 32 15C32 13.6172 31.1063 12.5 30 12.5H26.7ZM3.5 30C3.5 28.5082 3.97411 27.0774 4.81802 26.0225C5.66193 24.9676 6.80653 24.375 8 24.375C9.19347 24.375 10.3381 24.9676 11.182 26.0225C12.0259 27.0774 12.5 28.5082 12.5 30C12.5 31.4918 12.0259 32.9226 11.182 33.9775C10.3381 35.0324 9.19347 35.625 8 35.625C6.80653 35.625 5.66193 35.0324 4.81802 33.9775C3.97411 32.9226 3.5 31.4918 3.5 30ZM16 30C16 27.3478 15.1571 24.8043 13.6569 22.9289C12.1566 21.0536 10.1217 20 8 20C5.87827 20 3.84344 21.0536 2.34315 22.9289C0.842855 24.8043 0 27.3478 0 30C0 32.6522 0.842855 35.1957 2.34315 37.0711C3.84344 38.9464 5.87827 40 8 40C10.1217 40 12.1566 38.9464 13.6569 37.0711C15.1571 35.1957 16 32.6522 16 30ZM27.5 30C27.5 28.5082 27.9741 27.0774 28.818 26.0225C29.6619 24.9676 30.8065 24.375 32 24.375C33.1935 24.375 34.3381 24.9676 35.182 26.0225C36.0259 27.0774 36.5 28.5082 36.5 30C36.5 31.4918 36.0259 32.9226 35.182 33.9775C34.3381 35.0324 33.1935 35.625 32 35.625C30.8065 35.625 29.6619 35.0324 28.818 33.9775C27.9741 32.9226 27.5 31.4918 27.5 30ZM40 30C40 27.3478 39.1571 24.8043 37.6569 22.9289C36.1566 21.0536 34.1217 20 32 20C29.8783 20 27.8434 21.0536 26.3431 22.9289C24.8429 24.8043 24 27.3478 24 30C24 32.6522 24.8429 35.1957 26.3431 37.0711C27.8434 38.9464 29.8783 40 32 40C34.1217 40 36.1566 38.9464 37.6569 37.0711C39.1571 35.1957 40 32.6522 40 30Z" fill="white"/>
</svg>
