<svg width="35" height="40" viewBox="0 0 35 40" fill="none" xmlns="http://www.w3.org/2000/svg">
<path d="M10.3693 23.7642C10.5629 24.0189 11.2044 24.5002 12.25 24.5002C13.2956 24.5002 13.9377 24.0189 14.1307 23.7642C15.0068 22.6103 16.0174 22.0002 17.0543 22.0002H17.9457C18.9826 22.0002 19.9937 22.6103 20.8693 23.7642C21.0629 24.0189 21.7044 24.5002 22.75 24.5002C23.7956 24.5002 24.4377 24.0189 24.6307 23.7642C25.4434 22.6931 26.3741 22.1142 27.3317 22.033L21.1608 15.7361L22.1452 14.7314C22.3442 14.5298 22.598 14.4564 22.8353 14.5275L28.3232 16.2095C29.7402 16.6416 31.1363 15.3525 31.4404 13.3283C31.7439 11.3033 30.8416 9.30953 29.4235 8.87516L23.9356 7.19313C22.2551 6.67906 20.4892 7.2025 19.0925 8.62906L14.7164 13.0955C14.1488 13.6728 13.6577 14.3798 13.2552 15.2002L9.50195 22.8595C9.80109 23.1119 10.0937 23.4009 10.3693 23.7642ZM34.125 27.0002H33.25C31.8259 27.0002 30.7453 26.3423 30.1826 25.6017C29.6959 24.9603 29.1074 24.5002 28.4452 24.5002H27.5537C26.8915 24.5002 26.303 24.9603 25.8163 25.6017C25.2547 26.3423 24.1741 27.0002 22.75 27.0002C21.3259 27.0002 20.2453 26.3423 19.6826 25.6017C19.1959 24.9603 18.6074 24.5002 17.9452 24.5002H17.0537C16.3915 24.5002 15.803 24.9603 15.3163 25.6017C14.7547 26.3423 13.6741 27.0002 12.25 27.0002C10.8259 27.0002 9.74531 26.3423 9.18258 25.6017C8.69586 24.9603 8.10742 24.5002 7.44516 24.5002H6.55375C5.89148 24.5002 5.30305 24.9603 4.81633 25.6017C4.25469 26.3423 3.17406 27.0002 1.75 27.0002H0.875C0.391562 27.0002 0 27.5595 0 28.2502V30.7502C0 31.4408 0.391562 32.0002 0.875 32.0002H1.75C3.86203 32.0002 5.72687 31.0478 7 29.5127C8.27312 31.0486 10.138 32.0002 12.25 32.0002C14.362 32.0002 16.2269 31.0478 17.5 29.5127C18.7731 31.0486 20.638 32.0002 22.75 32.0002C24.862 32.0002 26.7269 31.0478 28 29.5127C29.2731 31.0486 31.138 32.0002 33.25 32.0002H34.125C34.6084 32.0002 35 31.4408 35 30.7502V28.2502C35 27.5595 34.6084 27.0002 34.125 27.0002ZM6.125 19.5002C8.54109 19.5002 10.5 16.7017 10.5 13.2502C10.5 9.79859 8.54109 7.00016 6.125 7.00016C3.70891 7.00016 1.75 9.79859 1.75 13.2502C1.75 16.7017 3.70891 19.5002 6.125 19.5002Z" fill="white"/>
</svg>
