<svg width="25" height="40" viewBox="0 0 25 40" fill="none" xmlns="http://www.w3.org/2000/svg">
<path d="M16.248 7.5C18.3184 7.5 19.998 5.82031 19.998 3.75C19.998 1.67969 18.3184 0 16.248 0C14.1777 0 12.498 1.67969 12.498 3.75C12.498 5.82031 14.1777 7.5 16.248 7.5ZM23.6309 19.1484L21.8105 18.2266L21.0527 15.9297C19.9043 12.4453 16.7012 10.0078 13.0684 10C10.2559 9.99219 8.70117 10.7891 5.7793 11.9688C4.0918 12.6484 2.70898 13.9375 1.89648 15.5781L1.37305 16.6406C0.763672 17.875 1.25586 19.375 2.48242 19.9922C3.70117 20.6094 5.18555 20.1094 5.80273 18.875L6.32617 17.8125C6.59961 17.2656 7.05273 16.8359 7.61523 16.6094L9.70898 15.7656L8.52148 20.5078C8.11523 22.1328 8.55273 23.8594 9.68555 25.1016L14.3652 30.2109C14.9277 30.8281 15.3262 31.5703 15.5293 32.375L16.959 38.1016C17.2949 39.4375 18.6543 40.2578 19.9902 39.9219C21.3262 39.5859 22.1465 38.2266 21.8105 36.8906L20.0762 29.9375C19.873 29.1328 19.4746 28.3828 18.9121 27.7734L15.3574 23.8906L16.7012 18.5234L17.1309 19.8125C17.5449 21.0703 18.4355 22.1094 19.6074 22.7031L21.4277 23.625C22.6465 24.2422 24.1309 23.7422 24.748 22.5078C25.3496 21.2812 24.8574 19.7656 23.6309 19.1484ZM5.74805 30.1406C5.49805 30.7734 5.12305 31.3438 4.63867 31.8203L0.732422 35.7344C-0.244141 36.7109 -0.244141 38.2969 0.732422 39.2734C1.70898 40.25 3.28711 40.25 4.26367 39.2734L8.9043 34.6328C9.38086 34.1562 9.75586 33.5859 10.0137 32.9531L11.0684 30.3125C6.74805 25.6016 8.04492 27.0469 7.36523 26.1172L5.74805 30.1406Z" fill="white"/>
</svg>
