<svg width="33" height="48" viewBox="0 0 33 48" fill="none" xmlns="http://www.w3.org/2000/svg">
<g filter="url(#filter0_d_210_62)">
<path d="M9.27017 36.893C8.99153 38.2336 9.66991 39.5906 10.7858 39.925C10.9557 39.9766 11.1256 39.9992 11.2936 39.9992C12.2266 39.9992 13.0755 39.2414 13.3131 38.1063L14.9564 30.218L11.5202 26.0945L9.27017 36.893ZM10.2396 21.5711L12.9193 9.14062C13.0618 8.48281 12.7148 7.81641 12.1432 7.65156C9.28645 6.82969 6.39127 8.82891 5.67707 12.118L4.03189 19.7844C3.88931 20.4422 4.23632 21.1086 4.80793 21.2734L8.94595 22.4648C9.51822 22.6289 10.097 22.2289 10.2396 21.5711ZM27.9583 12.5H26.9167C26.3411 12.5 25.875 13.0594 25.875 13.75V15H23.6126L20.567 11.3453C19.845 10.4773 18.8835 10 17.8613 10C16.1022 10 14.5755 11.4297 14.1484 13.4781L12.3958 21.8937C12.3087 22.3126 12.3133 22.7514 12.4094 23.1675C12.5054 23.5835 12.6896 23.9627 12.944 24.268L18.5833 31.0352V37.5C18.5833 38.8805 19.5163 40 20.6667 40C21.817 40 22.75 38.8805 22.75 37.5V31.0352C22.75 29.7 22.3164 28.4445 21.5293 27.5L18.4811 23.8422C18.4909 23.8031 18.513 23.7727 18.5215 23.732L19.8164 17.5156L21.2767 19.268C21.6673 19.7367 22.1973 20.0008 22.7493 20.0008H25.8743V38.7508C25.8743 39.4414 26.3405 40.0008 26.916 40.0008H27.9577C28.5332 40.0008 28.9993 39.4414 28.9993 38.7508V13.75C29 13.0594 28.5338 12.5 27.9583 12.5ZM19.625 7.5C21.3509 7.5 22.75 5.82109 22.75 3.75C22.75 1.67891 21.3509 0 19.625 0C17.8991 0 16.5 1.67891 16.5 3.75C16.5 5.82109 17.8991 7.5 19.625 7.5Z" fill="white"/>
</g>
<defs>
<filter id="filter0_d_210_62" x="-0.00012207" y="0" width="32.9995" height="48.0007" filterUnits="userSpaceOnUse" color-interpolation-filters="sRGB">
<feFlood flood-opacity="0" result="BackgroundImageFix"/>
<feColorMatrix in="SourceAlpha" type="matrix" values="0 0 0 0 0 0 0 0 0 0 0 0 0 0 0 0 0 0 127 0" result="hardAlpha"/>
<feOffset dy="4"/>
<feGaussianBlur stdDeviation="2"/>
<feComposite in2="hardAlpha" operator="out"/>
<feColorMatrix type="matrix" values="0 0 0 0 0 0 0 0 0 0 0 0 0 0 0 0 0 0 0.25 0"/>
<feBlend mode="normal" in2="BackgroundImageFix" result="effect1_dropShadow_210_62"/>
<feBlend mode="normal" in="SourceGraphic" in2="effect1_dropShadow_210_62" result="shape"/>
</filter>
</defs>
</svg>
