<svg width="25" height="40" viewBox="0 0 25 40" fill="none" xmlns="http://www.w3.org/2000/svg">
<path d="M16.3462 7.5C17.9393 7.5 19.2308 5.82109 19.2308 3.75C19.2308 1.67891 17.9393 0 16.3462 0C14.753 0 13.4615 1.67891 13.4615 3.75C13.4615 5.82109 14.753 7.5 16.3462 7.5ZM6.83233 24.8023L5.94291 27.4992H1.92308C0.861178 27.4992 0 28.6187 0 29.9992C0 31.3797 0.861178 32.4992 1.92308 32.4992H6.57752C7.73437 32.4992 8.77584 31.6055 9.22836 30.2266L9.75661 28.6234L9.11538 28.1312C8.07452 27.332 7.30889 26.1492 6.83233 24.8023ZM23.0769 17.4992H20.4309L18.8648 13.3391C18.1136 11.343 16.7344 9.88359 15.152 9.35938L10.8804 7.70781C9.17969 7.17656 7.40865 7.66484 6.02224 9.04688L3.63822 11.4227C2.79507 12.2625 2.63522 13.8313 3.28245 14.9273C3.92969 16.0234 5.13582 16.2289 5.97837 15.3898L8.36358 13.0141C8.82452 12.5539 9.41166 12.3891 9.88221 12.5344L10.7656 12.8758L8.51442 19.7031C7.75601 22.0063 8.4357 24.7039 10.095 25.9773L15.2019 29.8969L13.5511 36.7508C13.2338 38.068 13.7981 39.4703 14.8113 39.8828C15.003 39.9609 15.1965 39.9984 15.387 39.9984C16.2049 39.9984 16.9633 39.3133 17.2212 38.2445L19.1226 30.3492C19.4778 28.7266 18.9489 26.9836 17.8221 26.1L14.1418 23.2766L16.0234 17.1609L17.2416 20.3977C17.7224 21.6742 18.7392 22.4984 19.8323 22.4984H23.0769C24.1388 22.4984 25 21.3789 25 19.9984C25 18.618 24.1388 17.4992 23.0769 17.4992Z" fill="white"/>
</svg>
